<svg width="37" height="30" viewBox="0 0 37 30" fill="none" xmlns="http://www.w3.org/2000/svg">
<path d="M36 25V9C36 6.79086 34.2589 5 32.1111 5H27.25C26.1761 5 25.3056 4.10456 25.3056 3C25.3056 1.89544 24.435 1 23.3611 1H13.6389C12.565 1 11.6944 1.89544 11.6944 3C11.6944 4.10456 10.8239 5 9.75 5H4.88889C2.74111 5 1 6.79086 1 9V25C1 27.2092 2.74111 29 4.88889 29H32.1111C34.2589 29 36 27.2092 36 25Z" stroke="black" stroke-width="1.5"/>
<path d="M22.875 17C22.875 19.4852 20.9161 21.5 18.5 21.5V24.5C22.5271 24.5 25.7916 21.1422 25.7916 17H22.875ZM18.5 21.5C16.0838 21.5 14.125 19.4852 14.125 17H11.2083C11.2083 21.1422 14.4729 24.5 18.5 24.5V21.5ZM14.125 17C14.125 14.5148 16.0838 12.5 18.5 12.5V9.5C14.4729 9.5 11.2083 12.8578 11.2083 17H14.125ZM18.5 12.5C20.9161 12.5 22.875 14.5148 22.875 17H25.7916C25.7916 12.8578 22.5271 9.5 18.5 9.5V12.5Z" fill="black"/>
</svg>
