<svg width="32" height="32" viewBox="0 0 32 32" fill="none" xmlns="http://www.w3.org/2000/svg">
<path d="M14.3333 1H17.6667C18.5872 1 19.3333 1.7462 19.3333 2.66667V3.61465C19.3333 4.32765 19.8118 4.94708 20.4703 5.22047C21.1292 5.49397 21.8962 5.38973 22.4005 4.88538L23.071 4.21485C23.7218 3.56397 24.7772 3.56397 25.428 4.21485L27.785 6.57187C28.436 7.22275 28.4358 8.27802 27.785 8.9289L27.1147 9.59933C26.6102 10.1037 26.506 10.8708 26.7795 11.5296C27.0528 12.1881 27.6723 12.6667 28.3855 12.6667H29.3333C30.2538 12.6667 31 13.4128 31 14.3333V17.6667C31 18.5872 30.2538 19.3333 29.3333 19.3333H28.3853C27.6723 19.3333 27.053 19.8118 26.7795 20.4703C26.506 21.1292 26.6102 21.8962 27.1147 22.4005L27.785 23.071C28.436 23.7218 28.436 24.7772 27.785 25.428L25.428 27.785C24.7772 28.436 23.7218 28.436 23.071 27.785L22.4005 27.1147C21.8962 26.6102 21.1292 26.506 20.4703 26.7795C19.8118 27.053 19.3333 27.6723 19.3333 28.3853V29.3333C19.3333 30.2538 18.5872 31 17.6667 31H14.3333C13.4128 31 12.6667 30.2538 12.6667 29.3333V28.3855C12.6667 27.6723 12.1881 27.0528 11.5296 26.7795C10.8708 26.506 10.1037 26.6102 9.59933 27.1147L8.92887 27.785C8.27798 28.436 7.22272 28.436 6.57185 27.785L4.21482 25.428C3.56395 24.7772 3.56395 23.7218 4.21482 23.071L4.88538 22.4005C5.38973 21.8962 5.49397 21.1292 5.22047 20.4703C4.94708 19.8118 4.32765 19.3333 3.61465 19.3333H2.66667C1.7462 19.3333 1 18.5872 1 17.6667V14.3333C1 13.4128 1.7462 12.6667 2.66667 12.6667H3.61462C4.32763 12.6667 4.94708 12.1881 5.22048 11.5296C5.494 10.8708 5.38977 10.1038 4.88538 9.59943L4.21485 8.9289C3.56397 8.27802 3.56397 7.22275 4.21485 6.57188L6.57187 4.21485C7.22275 3.56398 8.27802 3.56398 8.9289 4.21485L9.59943 4.88538C10.1038 5.38977 10.8708 5.494 11.5296 5.22048C12.1881 4.94708 12.6667 4.32763 12.6667 3.6146V2.66667C12.6667 1.7462 13.4128 1 14.3333 1Z" stroke="black" stroke-width="1.5"/>
<path d="M19.3334 16C19.3334 17.841 17.841 19.3333 16 19.3333C14.159 19.3333 12.6667 17.841 12.6667 16C12.6667 14.159 14.159 12.6667 16 12.6667C17.841 12.6667 19.3334 14.159 19.3334 16Z" stroke="black" stroke-width="1.5"/>
</svg>
